<svg xmlns="http://www.w3.org/2000/svg" viewBox="210 256 819 425" width="819" height="425"><path fill="#ffffff" fill-rule="evenodd" d="M983.5 267.0L984.5 267.0L984.0 270.5L983.5 267.0ZM982.5 271.0L983.5 271.0L983.5 275.0L978.5 292.0L976.5 307.0L975.5 308.0L975.5 312.0L974.5 313.0L974.5 317.0L973.5 318.0L973.5 322.0L971.5 328.0L970.5 340.0L967.5 350.0L967.5 351.0L968.5 351.0L971.5 346.0L971.5 344.0L972.5 344.0L970.5 359.0L969.5 360.0L969.5 365.0L968.5 366.0L968.5 372.0L967.5 373.0L967.5 377.0L966.5 378.0L966.5 381.0L962.5 394.0L962.5 398.0L956.5 419.0L955.5 428.0L954.5 429.0L955.0 431.5L956.5 429.0L956.5 425.0L958.5 421.0L960.5 410.0L962.5 406.0L965.5 389.0L968.5 380.0L969.5 370.0L971.0 367.5L971.5 370.0L969.5 375.0L968.5 387.0L967.5 388.0L967.5 392.0L966.5 393.0L966.5 397.0L965.5 398.0L965.5 402.0L964.5 403.0L964.5 407.0L962.5 413.0L962.5 418.0L961.5 419.0L961.5 424.0L960.5 425.0L957.5 444.0L951.5 464.0L951.5 467.0L952.5 468.0L950.5 470.0L949.5 475.0L948.0 476.5L947.5 474.0L946.5 474.0L946.5 477.0L944.5 480.0L944.5 482.0L952.0 480.5L959.0 476.5L967.0 474.5L984.0 466.5L985.5 467.0L983.0 469.5L976.0 473.5L974.0 472.5L972.5 474.0L975.5 474.0L967.0 478.5L966.5 479.0L968.0 479.5L971.0 477.5L984.0 474.5L987.0 472.5L995.0 470.5L997.0 468.5L1003.0 469.5L1005.0 467.5L1011.0 465.5L1013.5 466.0L1004.0 470.5L1001.0 474.5L998.0 475.5L994.0 474.5L994.0 475.5L996.5 476.0L992.0 477.5L990.0 479.5L988.0 479.5L983.0 482.5L981.0 482.5L973.0 486.5L968.0 487.5L965.0 489.5L943.0 497.5L940.5 500.0L940.5 504.0L939.0 505.5L938.5 502.0L936.5 501.0L937.0 499.5L933.0 500.5L928.0 519.5L927.5 508.0L928.5 505.0L927.5 505.0L925.5 512.0L924.0 513.5L923.5 510.0L925.5 504.0L922.0 503.5L920.5 502.0L922.5 499.0L921.5 498.0L926.5 492.0L927.5 480.0L926.0 479.5L919.0 483.5L914.0 484.5L907.5 488.0L909.0 488.5L912.0 486.5L915.0 486.5L915.5 487.0L912.5 489.0L914.0 489.5L918.0 487.5L918.0 489.5L915.0 490.5L912.0 490.5L911.0 489.5L907.0 492.5L897.0 495.5L893.5 498.0L907.0 493.5L911.0 493.5L911.0 494.5L903.0 496.5L897.0 499.5L894.0 499.5L891.0 501.5L886.0 502.5L883.0 504.5L871.0 508.5L868.5 512.0L866.5 522.0L862.5 528.0L862.5 532.0L861.5 532.0L861.5 527.0L863.5 523.0L863.5 517.0L862.5 517.0L861.5 524.0L859.5 528.0L859.5 533.0L857.0 537.5L856.5 535.0L858.5 528.0L857.5 527.0L858.5 516.0L855.5 516.0L856.5 514.0L856.0 512.5L854.0 513.5L851.0 512.5L848.0 514.5L847.0 514.5L846.5 513.0L852.5 508.0L858.5 498.0L859.5 487.0L861.5 484.0L862.5 475.0L864.5 471.0L864.5 467.0L867.5 457.0L867.5 455.0L866.5 455.0L865.0 460.5L864.5 457.0L865.5 456.0L867.5 443.0L870.5 434.0L870.5 429.0L872.5 429.0L871.5 428.0L871.5 425.0L873.5 424.0L872.5 423.0L873.5 414.0L875.5 415.0L874.5 413.0L876.5 411.0L876.5 408.0L877.5 407.0L883.5 371.0L888.5 357.0L887.5 355.0L888.5 354.0L888.5 349.0L890.5 344.0L889.5 343.0L890.5 342.0L891.5 331.0L892.5 330.0L895.5 313.0L896.5 313.0L896.5 317.0L895.5 318.0L894.5 328.0L893.5 329.0L892.5 338.0L891.5 339.0L891.5 366.0L892.5 368.0L891.5 369.0L890.5 378.0L891.5 378.0L891.5 376.0L894.5 371.0L894.5 366.0L898.0 353.5L898.5 358.0L897.5 359.0L897.5 364.0L894.5 373.0L895.0 375.5L896.5 371.0L897.5 371.0L895.5 378.0L895.5 382.0L897.0 381.5L897.5 383.0L894.5 391.0L893.5 401.0L892.5 402.0L890.5 416.0L887.5 426.0L887.5 431.0L885.5 436.0L883.5 450.0L881.5 455.0L880.5 464.0L877.5 473.0L877.5 477.0L876.5 478.0L875.5 487.0L873.5 493.0L880.0 489.5L882.0 489.5L888.0 485.5L886.0 488.5L877.0 494.5L875.5 496.0L877.0 496.5L888.0 490.5L893.0 485.5L900.0 481.5L901.5 482.0L892.5 489.0L895.0 489.5L899.0 487.5L902.0 487.5L910.0 483.5L915.0 482.5L918.0 480.5L923.0 479.5L928.5 475.0L928.5 468.0L929.5 467.0L931.5 457.0L932.5 457.0L932.5 460.0L933.5 461.0L931.5 468.0L932.0 471.5L935.5 459.0L935.5 455.0L936.5 455.0L937.0 457.5L938.5 455.0L938.0 450.5L937.5 454.0L936.5 454.0L936.5 449.0L940.5 441.0L940.5 436.0L942.5 431.0L942.5 425.0L943.5 424.0L943.5 420.0L945.5 414.0L944.5 413.0L944.5 406.0L946.5 400.0L946.5 393.0L948.5 387.0L948.5 382.0L949.0 381.5L949.5 384.0L950.5 384.0L952.5 371.0L956.5 359.0L961.5 329.0L966.5 311.0L966.5 302.0L969.5 293.0L968.5 292.0L969.5 291.0L970.5 284.0L971.5 284.0L971.5 288.0L970.5 289.0L970.5 294.0L968.5 301.0L968.5 311.0L967.5 312.0L967.5 317.0L966.5 318.0L966.5 323.0L965.5 324.0L965.5 329.0L963.5 336.0L963.5 339.0L964.5 339.0L965.5 331.0L967.5 329.0L969.5 323.0L969.5 319.0L971.5 316.0L971.5 313.0L973.5 309.0L974.5 301.0L977.5 292.0L977.5 288.0L981.5 277.0L982.5 271.0ZM971.5 281.0L972.5 281.0L971.5 281.0ZM897.5 305.0L898.5 305.0L898.0 306.5L897.5 305.0ZM964.5 307.0L965.5 307.0L964.5 307.0ZM896.5 309.0L897.5 309.0L897.0 310.5L896.5 309.0ZM886.5 321.0L887.5 321.0L886.5 321.0ZM714.5 328.0L717.5 328.0L716.5 346.0L714.5 352.0L715.5 362.0L716.5 363.0L716.5 373.0L715.5 374.0L712.5 392.0L713.5 392.0L714.5 385.0L716.5 380.0L719.5 359.0L720.5 359.0L719.5 373.0L718.5 374.0L718.5 379.0L717.5 380.0L717.5 385.0L715.5 392.0L714.5 411.0L713.5 412.0L712.5 421.0L710.5 425.0L710.5 431.0L705.5 447.0L705.5 451.0L703.5 456.0L703.5 461.0L701.5 466.0L701.5 471.0L700.5 472.0L700.5 476.0L698.5 482.0L698.5 489.0L697.5 490.0L697.5 496.0L696.5 497.0L696.5 503.0L695.5 504.0L695.5 511.0L693.5 517.0L693.5 522.0L692.5 523.0L691.5 531.0L689.5 534.0L688.5 540.0L686.5 544.0L686.0 548.5L685.5 543.0L687.5 536.0L684.5 538.0L684.5 531.0L683.0 529.5L680.5 532.0L680.5 534.0L678.5 536.0L677.5 542.0L676.5 542.0L676.5 536.0L677.5 535.0L678.5 525.0L677.5 524.0L676.5 515.0L674.5 511.0L672.5 496.0L670.5 490.0L670.5 485.0L669.5 484.0L669.5 480.0L668.5 479.0L668.5 475.0L667.5 474.0L667.5 470.0L666.5 469.0L664.5 454.0L663.5 453.0L662.0 444.5L659.5 458.0L657.5 461.0L657.5 467.0L655.5 473.0L655.5 479.0L653.5 484.0L653.5 489.0L651.5 494.0L651.5 498.0L650.5 498.0L650.5 493.0L651.5 492.0L651.5 482.0L652.5 481.0L652.5 474.0L653.5 473.0L653.0 471.5L651.5 472.0L651.5 478.0L650.5 479.0L650.5 484.0L648.5 491.0L647.5 505.0L644.5 513.0L644.5 518.0L643.5 518.0L643.0 513.5L642.5 517.0L641.5 517.0L641.5 510.0L642.5 508.0L641.0 507.5L641.5 509.0L640.0 510.5L639.5 507.0L640.5 506.0L640.5 500.0L641.5 499.0L642.5 485.0L641.5 485.0L641.5 489.0L640.5 490.0L639.5 501.0L638.5 501.0L638.5 495.0L639.5 494.0L640.5 482.0L642.5 476.0L644.5 453.0L645.5 452.0L646.5 438.0L647.5 437.0L647.5 435.0L645.5 433.0L645.5 430.0L647.5 430.0L647.5 417.0L649.5 417.0L651.0 412.5L651.5 416.0L652.5 416.0L653.5 409.0L655.5 404.0L655.5 400.0L657.0 398.5L657.5 400.0L658.5 400.0L659.5 390.0L660.5 390.0L661.5 395.0L663.5 398.0L664.5 405.0L666.0 406.5L666.5 405.0L668.5 404.0L667.5 406.0L667.5 414.0L669.5 420.0L671.5 422.0L669.5 427.0L670.0 427.5L671.0 425.5L672.5 428.0L671.5 429.0L672.5 430.0L671.5 431.0L672.5 437.0L676.5 450.0L677.5 458.0L680.5 466.0L680.5 470.0L682.5 475.0L682.5 480.0L684.5 481.0L684.5 477.0L686.5 472.0L687.5 462.0L689.5 456.0L689.5 451.0L691.5 446.0L691.5 441.0L692.5 440.0L692.5 436.0L693.5 435.0L693.5 431.0L695.5 425.0L695.5 420.0L696.5 419.0L696.5 414.0L697.5 413.0L698.5 403.0L700.5 397.0L700.5 392.0L704.5 381.0L705.5 370.0L707.5 365.0L707.5 361.0L709.5 357.0L709.5 351.0L711.5 347.0L711.5 339.0L712.5 338.0L713.5 329.0L714.5 328.0ZM786.5 328.0L787.5 328.0L787.0 329.5L786.5 328.0ZM786.5 332.0L787.5 332.0L786.5 332.0ZM785.5 334.0L786.5 334.0L786.0 336.5L785.5 334.0ZM785.5 338.0L786.5 338.0L786.5 340.0L785.5 341.0L785.5 353.0L784.5 354.0L785.5 356.0L784.5 357.0L784.5 364.0L783.5 365.0L784.5 366.0L783.5 376.0L784.5 376.0L785.5 372.0L787.0 371.5L787.5 378.0L788.5 379.0L787.5 387.0L786.5 388.0L785.5 401.0L784.5 402.0L784.5 409.0L785.0 409.5L786.0 407.5L786.5 411.0L785.5 412.0L784.5 431.0L782.5 438.0L783.0 439.5L785.5 440.0L782.5 442.0L781.5 445.0L780.5 458.0L778.5 463.0L778.5 469.0L776.5 474.0L776.5 479.0L775.5 479.0L775.5 474.0L774.5 474.0L773.5 483.0L772.5 484.0L769.5 498.0L768.5 498.0L768.5 495.0L769.5 494.0L770.5 485.0L772.5 480.0L773.5 466.0L774.5 465.0L774.5 459.0L776.5 452.0L776.0 450.5L774.5 453.0L774.5 458.0L771.5 468.0L771.5 473.0L769.5 479.0L766.5 501.0L764.5 506.0L764.5 512.0L762.5 516.0L762.5 520.0L761.5 521.0L761.5 524.0L757.5 537.0L757.5 541.0L755.5 546.0L755.5 551.0L754.5 552.0L752.5 565.0L750.5 570.0L749.5 583.0L748.0 587.5L747.5 582.0L748.5 581.0L748.5 575.0L749.5 574.0L749.5 569.0L750.5 568.0L750.5 564.0L751.5 563.0L751.5 559.0L753.5 553.0L754.5 541.0L755.5 540.0L755.5 534.0L756.5 533.0L755.5 531.0L756.5 530.0L756.5 524.0L757.5 523.0L757.5 517.0L758.5 516.0L758.5 509.0L760.5 505.0L760.5 497.0L759.5 497.0L759.5 503.0L757.5 504.0L756.5 507.0L754.5 519.0L752.5 524.0L752.5 530.0L751.0 531.5L750.5 530.0L751.5 529.0L750.5 528.0L751.5 527.0L751.5 521.0L753.5 517.0L755.5 497.0L757.5 492.0L757.5 486.0L760.5 476.0L760.5 470.0L761.5 469.0L761.5 464.0L763.5 457.0L762.5 454.0L764.5 450.0L760.0 451.5L758.0 453.5L756.0 452.5L754.0 453.5L752.0 455.5L740.0 461.5L736.5 466.0L729.5 497.0L725.5 509.0L725.5 513.0L721.5 527.0L720.5 536.0L719.5 537.0L716.5 554.0L713.5 563.0L713.5 569.0L712.5 570.0L712.5 573.0L710.0 576.5L709.5 575.0L710.5 574.0L710.5 570.0L711.5 569.0L712.5 560.0L714.5 554.0L714.5 549.0L715.5 548.0L716.5 535.0L717.5 534.0L720.5 517.0L719.5 517.0L717.5 528.0L714.5 534.0L710.5 548.0L709.5 548.0L709.5 544.0L712.5 536.0L712.5 531.0L713.5 530.0L716.5 512.0L717.5 511.0L717.5 510.0L716.5 510.0L714.0 517.5L713.5 513.0L715.5 508.0L715.5 502.0L717.5 497.0L717.5 492.0L719.5 488.0L719.5 484.0L720.5 483.0L720.5 480.0L722.5 475.0L722.5 470.0L723.5 469.0L722.5 468.0L723.5 467.0L723.0 465.5L716.0 468.5L715.5 467.0L723.5 463.0L721.0 462.5L720.5 461.0L725.5 456.0L726.5 453.0L728.5 438.0L730.5 432.0L730.5 427.0L731.5 426.0L731.5 422.0L733.5 416.0L734.5 405.0L735.5 404.0L737.5 393.0L739.5 391.0L741.5 384.0L742.5 370.0L743.5 369.0L743.5 364.0L745.0 361.5L744.5 379.0L742.5 385.0L743.5 387.0L742.5 395.0L743.0 395.5L744.5 393.0L745.5 385.0L748.0 380.5L748.5 382.0L745.5 391.0L745.5 396.0L746.5 396.0L748.0 386.5L749.5 388.0L748.5 397.0L750.0 397.5L750.5 399.0L749.5 400.0L748.5 414.0L746.5 419.0L746.5 423.0L745.5 424.0L745.5 428.0L744.5 429.0L743.5 438.0L741.5 444.0L743.0 444.5L747.0 442.5L750.0 442.5L754.0 439.5L757.0 439.5L760.0 437.5L766.0 436.5L767.5 435.0L767.5 434.0L765.5 433.0L768.5 431.0L768.5 428.0L769.5 427.0L769.5 422.0L770.5 421.0L770.5 416.0L771.5 415.0L771.5 410.0L772.5 409.0L772.5 404.0L773.5 403.0L773.5 398.0L775.5 391.0L775.5 385.0L777.5 380.0L777.5 374.0L780.5 364.0L780.5 358.0L781.5 357.0L783.5 343.0L785.5 338.0ZM882.5 339.0L883.5 339.0L883.0 340.5L882.5 339.0ZM972.5 341.0L973.5 341.0L973.0 343.5L972.5 341.0ZM962.5 342.0L963.5 342.0L963.0 343.5L962.5 342.0ZM881.5 343.0L882.5 343.0L882.0 344.5L881.5 343.0ZM899.5 345.0L900.5 345.0L900.0 347.5L899.5 345.0ZM880.5 347.0L881.5 347.0L880.5 347.0ZM716.5 349.0L717.5 349.0L716.5 349.0ZM840.5 349.0L841.5 349.0L841.0 350.5L840.5 349.0ZM898.5 349.0L899.5 349.0L899.0 351.5L898.5 349.0ZM551.5 351.0L552.5 351.0L552.5 357.0L551.5 358.0L551.5 363.0L549.5 369.0L550.0 371.5L552.5 365.0L553.5 365.0L551.5 375.0L550.5 376.0L550.5 387.0L551.5 387.0L551.5 384.0L552.5 384.0L552.5 397.0L551.5 398.0L551.5 406.0L550.5 407.0L551.0 412.5L551.5 407.0L552.5 407.0L551.5 435.0L550.5 436.0L548.5 463.0L546.5 470.0L546.5 479.0L545.5 480.0L545.5 487.0L543.5 494.0L543.5 502.0L542.5 503.0L541.5 518.0L540.5 519.0L540.5 525.0L539.5 526.0L539.5 532.0L538.5 533.0L538.5 540.0L536.5 546.0L536.5 551.0L535.5 552.0L535.5 556.0L533.5 562.0L533.5 568.0L532.5 569.0L532.5 575.0L531.5 576.0L529.5 605.0L528.5 606.0L528.5 612.0L527.5 613.0L527.5 617.0L528.5 618.0L527.5 619.0L527.5 631.0L526.5 632.0L526.0 637.5L524.5 632.0L525.5 631.0L525.5 621.0L526.5 620.0L527.5 593.0L528.5 592.0L528.5 581.0L529.5 580.0L529.5 570.0L530.5 569.0L532.5 540.0L531.5 540.0L531.5 545.0L530.5 546.0L530.5 553.0L529.5 554.0L527.5 577.0L526.5 578.0L526.5 584.0L525.5 585.0L525.5 591.0L524.5 592.0L523.5 607.0L521.0 615.5L520.5 612.0L521.5 611.0L521.5 604.0L522.5 603.0L522.5 596.0L523.5 595.0L523.5 586.0L524.5 585.0L525.5 569.0L526.5 568.0L526.5 559.0L527.5 558.0L529.5 526.0L530.5 525.0L530.0 519.5L528.5 524.0L523.5 554.0L522.5 554.0L522.5 544.0L523.5 543.0L523.5 534.0L524.5 533.0L525.5 519.0L526.5 518.0L526.5 508.0L527.5 507.0L527.5 501.0L526.0 500.5L525.5 499.0L526.5 498.0L527.5 481.0L528.5 480.0L528.5 473.0L529.5 472.0L529.5 466.0L530.5 465.0L533.5 442.0L532.5 442.0L532.5 444.0L530.5 447.0L524.5 465.0L522.5 475.0L517.5 488.0L517.5 491.0L514.5 497.0L514.5 501.0L512.5 503.0L510.0 510.5L509.5 507.0L511.5 503.0L511.5 499.0L501.5 471.0L499.5 460.0L498.5 457.0L497.5 457.0L496.5 465.0L495.5 466.0L495.5 471.0L494.5 472.0L493.5 481.0L491.5 487.0L492.0 490.5L493.0 488.5L494.5 489.0L487.5 508.0L485.5 520.0L482.5 529.0L480.5 543.0L478.5 550.0L476.5 553.0L476.5 558.0L474.5 564.0L473.5 564.0L474.5 551.0L475.5 550.0L475.5 544.0L474.5 542.0L476.5 541.0L474.5 540.0L476.5 539.0L474.5 536.0L476.5 536.0L476.5 533.0L475.5 532.0L475.5 521.0L476.5 520.0L476.5 513.0L477.5 511.0L475.5 511.0L475.5 515.0L474.0 516.5L473.5 515.0L474.5 514.0L472.5 513.0L473.5 512.0L473.5 503.0L475.5 497.0L476.5 485.0L478.5 479.0L478.5 472.0L479.5 471.0L480.5 460.0L481.5 459.0L481.5 455.0L483.5 455.0L482.5 453.0L484.5 446.0L486.5 424.0L489.0 421.5L491.0 422.5L493.0 418.5L494.5 419.0L495.5 417.0L495.5 410.0L497.5 410.0L496.5 412.0L496.5 419.0L497.5 421.0L495.5 423.0L495.5 425.0L496.5 425.0L496.5 423.0L498.0 421.5L498.5 425.0L500.5 425.0L500.5 429.0L502.5 433.0L502.5 437.0L505.5 444.0L509.5 461.0L510.5 461.0L511.0 453.5L512.0 455.5L513.5 455.0L512.5 458.0L512.5 459.0L513.5 459.0L515.5 455.0L515.0 453.5L513.5 454.0L514.5 450.0L516.5 448.0L521.5 432.0L523.5 429.0L527.5 417.0L531.5 410.0L532.5 405.0L536.5 398.0L537.5 393.0L540.5 390.0L542.5 385.0L544.0 383.5L544.5 385.0L540.5 397.0L536.5 405.0L536.5 409.0L534.5 412.0L535.0 415.5L541.5 397.0L543.0 395.5L542.5 400.0L544.5 399.0L545.5 385.0L546.5 384.0L545.5 378.0L547.5 374.0L551.5 351.0ZM715.5 352.0L716.5 352.0L715.5 352.0ZM839.5 352.0L840.5 352.0L840.5 355.0L839.5 356.0L839.5 360.0L837.5 366.0L837.5 372.0L836.5 373.0L835.5 382.0L832.5 391.0L834.5 390.0L834.5 388.0L837.5 383.0L840.5 381.0L839.5 378.0L842.5 369.0L843.5 369.0L843.5 373.0L841.5 378.0L843.0 379.5L845.0 378.5L845.5 375.0L846.5 375.0L846.5 381.0L842.5 391.0L843.5 392.0L842.5 401.0L843.5 401.0L844.5 394.0L846.5 394.0L845.5 396.0L847.5 398.0L846.5 399.0L845.5 417.0L847.5 421.0L845.5 425.0L844.5 433.0L843.5 434.0L843.5 445.0L842.5 447.0L846.0 447.5L851.0 445.5L851.5 447.0L844.0 451.5L843.5 453.0L848.0 451.5L857.0 444.5L857.5 446.0L856.5 447.0L858.5 448.0L855.0 448.5L853.0 449.5L852.5 451.0L858.5 451.0L849.0 459.5L840.5 464.0L840.5 479.0L839.5 480.0L839.5 494.0L838.5 495.0L839.5 496.0L839.5 502.0L838.5 503.0L838.5 509.0L837.5 510.0L838.5 512.0L837.5 543.0L836.5 543.0L836.5 540.0L835.5 539.0L836.5 538.0L835.5 536.0L836.5 533.0L835.5 531.0L836.5 529.0L836.0 528.5L833.5 532.0L835.5 541.0L834.0 542.5L833.5 540.0L832.5 540.0L832.5 544.0L831.5 545.0L832.5 550.0L830.5 555.0L831.5 557.0L830.5 559.0L829.5 559.0L830.5 542.0L830.0 541.5L828.5 544.0L829.5 545.0L828.5 546.0L828.5 554.0L827.5 554.0L827.5 540.0L828.5 539.0L829.5 514.0L830.5 513.0L830.5 503.0L831.5 502.0L831.5 489.0L830.5 489.0L829.5 506.0L828.5 507.0L828.5 517.0L827.5 518.0L827.5 528.0L826.5 529.0L824.5 554.0L823.5 555.0L824.5 559.0L823.5 560.0L823.5 568.0L822.5 569.0L822.5 586.0L821.5 587.0L821.0 591.5L821.5 560.0L822.5 559.0L822.5 550.0L823.5 549.0L824.5 518.0L825.5 517.0L825.5 510.0L827.5 504.0L827.5 486.0L828.5 485.0L827.5 484.0L828.5 481.0L827.5 479.0L827.5 471.0L818.0 475.5L812.5 480.0L810.5 488.0L804.5 500.0L802.5 508.0L802.0 508.5L801.5 506.0L800.5 506.0L800.5 508.0L798.5 510.0L797.5 514.0L794.5 517.0L792.5 524.0L791.5 524.0L791.5 522.0L794.5 513.0L794.0 512.5L792.5 515.0L788.0 528.5L787.5 519.0L785.5 519.0L785.5 516.0L790.5 502.0L791.5 494.0L792.5 492.0L794.5 491.0L793.5 489.0L795.5 485.0L795.0 483.5L794.0 484.5L790.5 484.0L794.0 482.5L798.5 478.0L799.5 475.0L799.0 472.5L792.0 474.5L789.5 474.0L802.5 466.0L812.5 436.0L816.5 419.0L826.5 391.0L827.5 385.0L836.5 366.0L839.5 352.0ZM879.5 353.0L880.5 353.0L880.0 354.5L879.5 353.0ZM715.5 354.0L716.5 354.0L716.0 355.5L715.5 354.0ZM878.5 355.0L879.5 355.0L879.0 358.5L878.5 355.0ZM713.5 357.0L714.5 357.0L714.0 359.5L713.5 357.0ZM877.5 360.0L878.5 360.0L878.0 364.5L876.5 364.0L877.5 363.0L877.5 360.0ZM553.5 362.0L554.5 362.0L554.0 363.5L553.5 362.0ZM843.5 366.0L844.5 366.0L844.0 367.5L843.5 366.0ZM876.5 366.0L877.5 366.0L877.0 367.5L876.5 366.0ZM897.5 369.0L898.5 369.0L897.5 369.0ZM257.5 370.0L260.5 372.0L260.0 373.5L257.5 370.0ZM834.5 373.0L835.5 373.0L834.5 379.0L832.5 383.0L832.5 386.0L831.0 387.5L834.5 373.0ZM875.5 373.0L876.5 373.0L875.5 373.0ZM260.5 374.0L261.0 373.5L265.5 378.0L285.0 402.5L287.5 402.0L287.5 396.0L288.5 395.0L289.5 387.0L290.5 387.0L288.5 406.0L290.5 406.0L291.5 397.0L292.5 396.0L292.5 393.0L293.5 393.0L292.5 412.0L294.0 412.5L295.5 411.0L295.5 407.0L296.5 406.0L297.5 399.0L298.5 399.0L297.5 416.0L298.5 416.0L299.0 413.5L300.5 416.0L299.5 419.0L314.0 431.5L346.0 464.5L349.5 465.0L347.5 466.0L349.5 470.0L351.0 471.5L353.0 470.5L354.5 471.0L351.5 475.0L352.5 477.0L351.5 480.0L353.5 483.0L352.0 483.5L350.0 480.5L348.5 486.0L345.5 487.0L345.5 489.0L331.5 517.0L329.5 519.0L329.5 521.0L327.5 523.0L325.5 529.0L319.5 539.0L319.5 541.0L317.5 543.0L317.5 545.0L315.5 547.0L308.5 561.0L306.5 563.0L296.5 582.0L275.5 617.0L273.5 618.0L273.5 616.0L276.5 612.0L274.5 613.0L269.5 623.0L264.5 629.0L258.5 639.0L256.5 639.0L257.5 636.0L262.5 628.0L263.5 623.0L268.5 614.0L286.5 588.0L285.0 588.5L284.5 587.0L296.5 570.0L306.5 552.0L306.0 550.5L295.5 568.0L285.5 582.0L284.5 585.0L274.5 598.0L266.5 611.0L228.0 661.5L227.5 660.0L239.5 644.0L240.5 641.0L243.5 638.0L245.5 633.0L247.5 631.0L248.0 628.5L245.0 631.5L244.5 630.0L249.5 625.0L257.5 614.0L259.0 609.5L253.0 616.5L252.5 615.0L263.5 600.0L262.5 598.0L263.5 596.0L263.5 580.0L264.5 579.0L264.5 572.0L266.5 566.0L265.5 565.0L266.5 564.0L266.5 557.0L267.5 556.0L267.5 550.0L268.5 549.0L268.5 540.0L269.5 539.0L270.5 524.0L272.5 517.0L274.5 491.0L275.5 490.0L277.5 472.0L278.5 471.0L278.5 466.0L280.5 459.0L280.5 451.0L281.5 450.0L282.5 437.0L284.5 437.0L283.5 436.0L283.5 428.0L273.0 419.5L246.5 394.0L248.0 393.5L258.0 401.5L268.0 407.5L279.0 417.5L284.5 421.0L284.5 416.0L266.0 399.5L255.5 388.0L257.0 387.5L277.0 402.5L284.0 409.5L285.5 409.0L285.5 406.0L273.5 393.0L260.5 374.0ZM544.5 382.0L545.5 382.0L544.5 382.0ZM253.5 386.0L254.5 386.0L253.5 386.0ZM254.5 387.0L255.5 387.0L254.5 387.0ZM549.5 390.0L550.5 390.0L550.0 392.5L549.5 390.0ZM711.5 394.0L712.5 394.0L711.5 394.0ZM826.5 396.0L827.5 396.0L827.0 397.5L826.5 396.0ZM744.5 398.0L745.5 398.0L745.5 402.0L744.0 405.5L743.5 402.0L744.5 401.0L744.5 398.0ZM548.5 399.0L549.5 399.0L549.5 402.0L548.5 403.0L548.0 407.5L547.5 403.0L548.5 402.0L548.5 399.0ZM747.5 399.0L748.5 399.0L747.5 399.0ZM825.5 399.0L826.5 399.0L826.0 400.5L825.5 399.0ZM388.5 400.0L389.5 400.0L389.0 402.5L388.5 400.0ZM397.5 400.0L398.5 400.0L398.0 401.5L397.5 400.0ZM394.5 401.0L395.5 401.0L395.0 402.5L394.5 401.0ZM596.5 402.0L599.0 402.5L600.0 401.5L603.0 405.5L605.0 405.5L606.0 403.5L607.5 404.0L606.5 405.0L607.5 408.0L605.5 410.0L607.0 412.5L607.5 410.0L608.5 410.0L609.5 415.0L615.5 421.0L620.5 431.0L622.5 438.0L627.5 444.0L629.5 457.0L628.5 457.0L625.5 445.0L622.5 443.0L624.5 448.0L624.5 452.0L627.5 458.0L627.5 462.0L625.5 468.0L617.5 482.0L616.5 486.0L616.0 486.5L615.0 484.5L612.5 488.0L606.5 501.0L603.5 505.0L603.5 507.0L599.5 513.0L601.5 519.0L601.0 519.5L599.0 516.5L596.5 517.0L597.5 512.0L595.5 512.0L594.5 516.0L596.5 518.0L592.5 523.0L593.5 530.0L595.5 534.0L595.0 536.5L592.0 529.5L591.0 529.5L590.5 532.0L589.5 532.0L589.5 528.0L590.5 527.0L585.5 517.0L585.5 515.0L573.5 490.0L565.5 480.0L565.5 477.0L563.5 473.0L565.0 473.5L565.5 471.0L567.5 470.0L567.5 467.0L570.5 462.0L568.5 456.0L570.0 455.5L572.0 457.5L573.5 457.0L573.5 455.0L582.5 436.0L581.5 433.0L584.5 429.0L588.5 420.0L594.0 413.5L596.0 413.5L597.5 412.0L596.5 402.0ZM387.5 403.0L388.5 403.0L388.5 406.0L385.5 415.0L385.0 423.5L389.5 416.0L392.5 406.0L393.5 406.0L393.0 411.5L396.5 405.0L396.5 403.0L397.5 403.0L397.5 408.0L395.5 411.0L395.5 413.0L397.0 412.5L397.5 414.0L394.5 424.0L394.5 432.0L392.5 434.0L392.5 442.0L393.5 442.0L395.0 438.5L397.5 439.0L396.5 442.0L396.5 445.0L397.5 446.0L396.5 477.0L395.0 478.5L393.5 478.0L395.0 479.5L407.0 472.5L408.5 473.0L405.0 477.5L393.5 487.0L393.5 489.0L396.0 488.5L408.0 479.5L409.5 480.0L394.5 493.0L398.0 491.5L399.5 492.0L392.5 498.0L393.5 502.0L392.5 503.0L391.5 519.0L389.5 519.0L388.5 535.0L386.5 541.0L387.5 544.0L385.5 549.0L387.0 549.5L387.5 551.0L385.5 551.0L386.5 555.0L385.5 556.0L385.5 563.0L383.5 569.0L385.5 571.0L383.5 572.0L383.5 576.0L379.5 590.0L379.5 595.0L377.0 601.5L377.5 590.0L376.5 588.0L377.5 587.0L378.5 575.0L380.5 570.0L380.5 562.0L381.5 561.0L381.5 544.0L380.5 544.0L380.5 550.0L379.5 550.0L379.5 532.0L377.5 530.0L377.5 513.0L376.0 512.5L360.0 524.5L358.5 529.0L357.0 529.5L356.0 528.5L353.0 533.5L352.0 530.5L350.5 532.0L351.5 533.0L351.5 538.0L347.5 544.0L343.0 556.5L342.5 553.0L343.5 552.0L344.5 545.0L346.5 545.0L346.5 542.0L344.5 541.0L344.5 539.0L347.5 536.0L348.5 533.0L344.0 533.5L342.0 536.5L339.0 538.5L337.5 538.0L341.5 534.0L340.5 531.0L344.5 524.0L344.5 520.0L343.5 519.0L347.5 516.0L347.5 512.0L350.5 507.0L350.5 504.0L352.5 500.0L352.5 497.0L354.5 493.0L354.5 490.0L358.5 478.0L361.0 474.5L361.5 476.0L357.5 485.0L358.0 488.5L362.5 480.0L367.5 465.0L367.5 462.0L377.5 432.0L379.5 429.0L379.5 426.0L384.5 414.0L387.5 403.0ZM552.5 403.0L553.5 403.0L553.0 406.5L552.5 403.0ZM393.5 404.0L394.5 404.0L394.0 405.5L393.5 404.0ZM598.5 405.0L599.5 405.0L599.0 407.5L598.5 405.0ZM656.5 407.0L657.5 407.0L657.0 409.5L656.5 407.0ZM651.5 410.0L652.5 410.0L652.0 412.5L651.5 410.0ZM874.5 410.0L875.5 410.0L874.5 410.0ZM287.5 411.0L289.5 412.0L288.0 412.5L287.5 411.0ZM836.5 412.0L837.5 412.0L837.5 415.0L836.5 416.0L835.5 426.0L834.5 427.0L834.5 431.0L833.5 432.0L833.5 436.0L832.5 437.0L830.5 448.0L827.0 452.5L822.0 454.5L827.5 435.0L832.5 425.0L836.5 412.0ZM741.5 414.0L742.5 414.0L742.5 417.0L741.0 418.5L741.5 414.0ZM602.5 415.0L604.0 414.5L604.5 416.0L602.5 415.0ZM663.5 415.0L664.5 415.0L664.0 417.5L663.5 415.0ZM549.5 416.0L550.5 416.0L550.0 417.5L549.5 416.0ZM285.5 418.0L287.5 418.0L287.0 423.5L285.5 423.0L285.5 418.0ZM950.5 419.0L951.5 419.0L950.5 429.0L949.5 430.0L944.0 453.5L943.5 451.0L946.5 441.0L946.5 436.0L948.5 431.0L950.5 419.0ZM389.5 421.0L390.0 420.5L390.5 422.0L389.5 423.0L389.0 427.5L388.5 423.0L389.5 421.0ZM487.5 421.0L488.5 421.0L487.5 421.0ZM501.5 421.0L502.5 421.0L501.5 421.0ZM376.5 423.0L377.5 423.0L376.5 423.0ZM534.5 423.0L535.5 423.0L534.5 423.0ZM373.5 424.0L375.5 424.0L373.5 424.0ZM500.5 424.0L501.5 424.0L500.5 424.0ZM502.5 424.0L503.5 424.0L502.5 424.0ZM371.5 425.0L373.5 425.0L372.0 426.5L370.5 426.0L371.5 425.0ZM533.5 425.0L534.5 425.0L534.0 426.5L533.5 425.0ZM368.5 427.0L370.5 427.0L368.5 427.0ZM503.5 427.0L504.5 427.0L504.0 429.5L503.5 427.0ZM366.5 428.0L368.5 428.0L366.5 428.0ZM532.5 428.0L533.5 428.0L532.5 428.0ZM666.5 428.0L667.5 428.0L666.5 428.0ZM364.5 429.0L366.5 429.0L364.5 429.0ZM388.5 429.0L389.5 429.0L389.0 432.5L388.5 429.0ZM284.5 430.0L285.5 430.0L285.0 433.5L284.5 430.0ZM298.5 430.0L299.0 429.5L305.5 436.0L304.0 436.5L298.5 430.0ZM469.5 430.0L471.5 430.0L469.5 432.0L470.5 433.0L459.0 439.5L459.5 441.0L455.0 444.5L450.0 446.5L448.5 448.0L451.0 447.5L450.0 449.5L426.0 463.5L426.0 466.5L423.5 466.0L425.5 469.0L423.5 470.0L423.5 474.0L422.5 475.0L419.5 489.0L421.5 488.0L422.0 485.5L424.0 487.5L428.0 484.5L430.0 484.5L435.0 481.5L436.5 482.0L434.0 484.5L426.5 489.0L426.5 490.0L428.0 490.5L432.0 487.5L433.5 488.0L429.0 491.5L427.0 494.5L440.0 487.5L442.5 488.0L428.0 496.5L415.5 506.0L407.5 527.0L414.0 523.5L434.0 508.5L442.0 504.5L443.5 505.0L438.5 509.0L439.0 510.5L443.0 506.5L448.0 503.5L448.5 505.0L437.0 515.5L433.0 517.5L433.0 518.5L444.0 514.5L453.0 508.5L455.5 509.0L454.5 511.0L450.0 515.5L429.0 529.5L422.5 536.0L423.0 537.5L427.0 535.5L426.0 537.5L415.0 541.5L403.0 551.5L394.5 557.0L394.5 556.0L406.0 545.5L423.0 532.5L423.0 531.5L421.0 531.5L402.0 545.5L396.0 552.5L396.0 549.5L391.5 554.0L391.5 557.0L390.0 559.5L389.0 555.5L386.5 558.0L385.0 562.5L382.5 559.0L384.5 557.0L383.5 555.0L386.5 552.0L390.5 542.0L391.5 535.0L391.0 534.5L390.0 536.5L389.5 533.0L406.5 483.0L409.5 469.0L414.5 457.0L414.5 454.0L417.5 452.0L421.5 439.0L423.5 438.0L421.5 443.0L422.0 444.5L423.0 443.5L424.5 444.0L423.0 446.5L424.0 446.5L427.0 442.5L428.5 443.0L429.0 445.5L432.0 443.5L437.5 442.0L437.0 443.5L428.5 449.0L427.5 451.0L429.0 451.5L448.0 440.5L449.0 442.5L449.5 441.0L454.0 437.5L469.5 430.0ZM504.5 430.0L505.5 430.0L505.0 432.5L504.5 430.0ZM363.5 432.0L364.5 432.0L363.5 432.0ZM586.5 432.0L587.0 431.5L587.5 433.0L582.0 443.5L582.5 440.0L586.5 432.0ZM605.5 432.0L607.5 432.0L608.5 439.0L612.5 449.0L612.5 454.0L601.5 479.0L599.5 485.0L601.5 486.0L598.5 491.0L597.5 495.0L596.0 495.5L593.5 491.0L592.5 486.0L586.5 475.0L586.5 472.0L598.5 447.0L598.5 445.0L605.5 432.0ZM505.5 433.0L506.5 433.0L506.0 436.5L505.5 433.0ZM387.5 434.0L388.5 434.0L388.0 435.5L387.5 434.0ZM393.5 435.0L394.5 435.0L393.5 435.0ZM580.5 435.0L581.0 434.5L581.5 436.0L579.0 438.5L578.5 437.0L580.5 435.0ZM759.5 436.0L761.5 436.0L759.5 436.0ZM386.5 437.0L387.5 437.0L386.5 437.0ZM506.5 437.0L507.5 437.0L508.5 440.0L508.0 444.5L506.5 437.0ZM662.5 440.0L663.5 440.0L662.5 440.0ZM764.5 440.0L766.5 440.0L765.0 441.5L764.5 440.0ZM882.5 440.0L883.5 440.0L882.5 440.0ZM349.5 441.0L350.5 441.0L349.5 441.0ZM757.5 441.0L758.5 441.0L757.5 441.0ZM297.5 442.0L299.0 441.5L322.0 463.5L331.5 471.0L329.5 473.0L328.5 477.0L324.5 483.0L322.5 495.0L314.5 512.0L314.5 514.0L307.5 525.0L301.5 538.0L299.5 540.0L287.5 563.0L280.5 573.0L273.5 586.0L272.0 586.5L274.5 567.0L276.0 565.5L276.5 567.0L277.5 567.0L277.5 560.0L278.5 559.0L277.5 550.0L278.0 549.5L278.5 552.0L279.5 552.0L283.5 523.0L284.5 523.0L284.5 538.0L283.5 539.0L284.5 541.0L283.5 542.0L283.5 548.0L284.5 548.0L285.5 535.0L286.5 534.0L285.5 523.0L286.5 522.0L286.5 516.0L288.5 511.0L288.5 504.0L290.5 500.0L291.5 489.0L293.5 482.0L297.5 442.0ZM508.5 445.0L509.5 445.0L509.0 448.5L508.5 445.0ZM828.5 446.0L829.5 446.0L828.5 446.0ZM394.5 447.0L395.5 447.0L394.5 447.0ZM938.5 448.0L939.5 448.0L939.0 449.5L938.5 448.0ZM509.5 449.0L510.5 449.0L510.0 453.5L509.5 449.0ZM880.5 449.0L881.5 449.0L881.5 453.0L880.0 457.5L879.5 454.0L880.5 453.0L880.5 449.0ZM949.5 453.0L950.5 453.0L949.5 453.0ZM329.5 455.0L333.5 458.0L334.0 460.5L329.5 455.0ZM942.5 455.0L943.5 455.0L943.0 456.5L942.5 455.0ZM742.5 456.0L743.5 456.0L742.0 457.5L738.5 459.0L739.0 457.5L742.5 456.0ZM878.5 459.0L879.5 459.0L879.0 462.5L878.5 459.0ZM936.5 459.0L937.5 459.0L937.0 460.5L936.5 459.0ZM935.5 462.0L936.5 462.0L935.5 462.0ZM863.5 463.0L864.5 463.0L863.5 463.0ZM1018.5 463.0L1019.5 463.0L1018.5 463.0ZM877.5 464.0L878.5 464.0L878.0 466.5L877.5 464.0ZM1016.5 464.0L1017.5 464.0L1016.5 464.0ZM427.5 465.0L428.5 465.0L428.0 466.5L427.5 465.0ZM1014.5 465.0L1015.5 465.0L1014.5 465.0ZM948.5 466.0L949.5 466.0L949.0 467.5L948.5 466.0ZM956.5 466.0L957.5 466.0L956.5 466.0ZM952.5 467.0L955.5 467.0L952.5 467.0ZM1001.5 467.0L1003.5 467.0L1001.5 467.0ZM426.5 468.0L428.5 468.0L423.0 485.5L422.5 482.0L423.5 481.0L424.5 474.0L426.5 471.0L426.5 468.0ZM379.5 468.0L380.5 468.0L379.5 487.0L375.5 489.0L376.5 491.0L375.0 492.5L372.0 493.5L373.5 486.0L375.5 482.0L375.5 478.0L377.5 475.0L379.5 468.0ZM876.5 468.0L877.5 468.0L877.0 470.5L876.5 468.0ZM1014.5 468.0L1015.5 468.0L1014.5 468.0ZM470.5 472.0L471.5 472.0L470.5 472.0ZM582.5 473.0L583.5 473.0L582.5 473.0ZM1002.5 473.0L1004.5 473.0L1002.5 473.0ZM336.5 474.0L337.5 474.0L336.5 474.0ZM875.5 474.0L876.5 474.0L876.0 475.5L875.5 474.0ZM788.5 475.0L789.5 475.0L788.5 475.0ZM824.5 476.0L825.5 476.0L825.0 479.5L824.5 476.0ZM474.5 477.0L475.5 477.0L474.5 477.0ZM585.5 477.0L586.5 477.0L587.0 479.5L585.5 479.0L585.5 477.0ZM874.5 477.0L875.5 477.0L875.0 479.5L874.5 477.0ZM987.5 477.0L990.0 476.5L990.0 477.5L988.0 477.5L985.0 479.5L983.5 479.0L987.5 477.0ZM472.5 478.0L473.5 478.0L472.5 478.0ZM471.5 479.0L472.5 479.0L471.5 479.0ZM907.5 479.0L908.5 479.0L907.5 479.0ZM930.5 479.0L931.5 479.0L930.5 479.0ZM946.5 479.0L947.5 479.0L947.0 480.5L946.5 479.0ZM444.5 480.0L445.0 479.5L445.5 481.0L442.0 483.5L437.0 485.5L435.0 487.5L433.5 487.0L436.0 484.5L444.5 480.0ZM774.5 480.0L775.5 480.0L775.5 486.0L774.0 490.5L773.5 485.0L774.5 484.0L774.5 480.0ZM905.5 480.0L907.5 480.0L905.5 480.0ZM981.5 480.0L982.5 480.0L981.5 480.0ZM873.5 481.0L874.5 481.0L873.5 481.0ZM894.5 481.0L895.5 481.0L895.0 482.5L894.5 481.0ZM979.5 481.0L980.5 481.0L979.5 481.0ZM581.5 482.0L582.5 482.0L583.0 484.5L581.5 482.0ZM976.5 482.0L978.5 482.0L976.5 482.0ZM872.5 483.0L873.5 483.0L872.0 485.5L871.5 484.0L872.5 483.0ZM371.5 484.0L372.5 484.0L372.5 486.0L369.5 495.0L367.0 497.5L366.5 496.0L371.5 484.0ZM915.5 486.0L917.5 486.0L915.5 486.0ZM442.5 487.0L444.5 487.0L442.5 487.0ZM614.5 487.0L615.5 487.0L615.0 488.5L614.5 487.0ZM466.5 488.0L467.5 488.0L466.5 488.0ZM876.5 488.0L878.5 488.0L877.0 489.5L876.5 488.0ZM932.5 488.0L933.5 488.0L933.0 489.5L932.5 488.0ZM464.5 489.0L465.5 489.0L464.5 489.0ZM904.5 489.0L906.5 489.0L904.5 489.0ZM401.5 490.0L402.5 490.0L401.5 490.0ZM613.5 490.0L614.5 490.0L614.0 491.5L613.5 490.0ZM875.5 490.0L876.5 490.0L875.5 490.0ZM356.5 491.0L357.5 491.0L357.0 492.5L356.5 491.0ZM399.5 491.0L401.5 491.0L399.5 491.0ZM772.5 491.0L773.5 491.0L773.0 496.5L772.5 491.0ZM910.5 491.0L911.5 491.0L910.5 491.0ZM916.5 491.0L918.5 491.0L916.5 491.0ZM913.5 492.0L916.5 492.0L913.5 492.0ZM612.5 493.0L613.5 493.0L612.5 493.0ZM911.5 493.0L913.5 493.0L911.5 493.0ZM916.5 494.0L917.5 494.0L916.5 494.0ZM604.5 495.0L605.5 495.0L600.5 505.0L600.5 507.0L599.0 507.5L600.5 502.0L604.5 495.0ZM511.5 497.0L512.5 497.0L511.5 497.0ZM873.5 497.0L874.5 497.0L873.5 497.0ZM772.5 498.0L773.5 498.0L772.5 498.0ZM643.5 499.0L644.5 499.0L644.0 507.5L642.5 505.0L643.5 499.0ZM890.5 499.0L891.5 499.0L890.5 499.0ZM938.5 499.0L939.5 499.0L938.5 499.0ZM376.5 500.0L377.5 500.0L376.0 501.5L376.5 500.0ZM587.5 500.0L589.5 501.0L592.5 506.0L592.0 509.5L590.5 509.0L587.5 500.0ZM888.5 500.0L889.5 500.0L888.5 500.0ZM593.5 502.0L594.5 502.0L593.5 502.0ZM637.5 503.0L638.5 503.0L638.0 506.5L637.5 503.0ZM801.5 504.0L802.5 504.0L801.5 504.0ZM920.5 504.0L921.5 504.0L920.5 504.0ZM515.5 506.0L516.5 506.0L516.0 507.5L515.5 506.0ZM822.5 506.0L823.5 506.0L822.5 506.0ZM636.5 507.0L637.5 507.0L636.5 507.0ZM766.5 507.0L767.5 507.0L766.5 507.0ZM800.5 509.0L801.5 509.0L801.0 511.5L800.5 509.0ZM285.5 510.0L286.5 510.0L286.5 514.0L285.5 515.0L285.0 521.5L284.5 514.0L285.5 513.0L285.5 510.0ZM516.5 510.0L517.5 510.0L517.0 512.5L516.5 510.0ZM598.5 510.0L599.5 510.0L598.5 510.0ZM854.5 510.0L856.5 510.0L855.0 511.5L852.5 511.0L854.5 510.0ZM508.5 511.0L509.5 511.0L509.0 512.5L508.5 511.0ZM642.5 511.0L643.5 511.0L642.5 511.0ZM794.5 511.0L795.5 511.0L794.5 511.0ZM799.5 512.0L800.5 512.0L799.5 512.0ZM517.5 513.0L518.5 513.0L519.0 517.5L517.5 517.0L517.5 513.0ZM788.5 513.0L789.5 513.0L789.0 515.5L788.5 513.0ZM507.5 514.0L508.5 514.0L508.0 515.5L507.5 514.0ZM720.5 514.0L721.5 514.0L720.5 514.0ZM799.5 514.0L800.5 514.0L799.5 514.0ZM471.5 515.0L472.5 515.0L471.5 515.0ZM473.5 518.0L474.5 518.0L474.0 521.5L473.5 518.0ZM712.5 518.0L713.5 518.0L713.0 520.5L712.5 518.0ZM338.5 520.0L340.5 520.0L338.5 520.0ZM926.5 520.0L927.5 520.0L927.0 523.5L926.5 520.0ZM444.5 521.0L445.5 521.0L444.5 521.0ZM442.5 522.0L444.5 522.0L442.5 522.0ZM785.5 522.0L786.5 522.0L786.0 523.5L785.5 522.0ZM440.5 523.0L442.5 523.0L440.5 523.0ZM439.5 524.0L440.5 524.0L439.5 524.0ZM858.5 524.0L859.5 524.0L859.0 525.5L858.5 524.0ZM438.5 525.0L439.5 525.0L438.5 525.0ZM436.5 526.0L438.5 526.0L436.5 526.0ZM347.5 527.0L349.5 527.0L348.5 529.0L346.0 530.5L347.5 527.0ZM280.5 529.0L281.5 529.0L281.0 530.5L280.5 529.0ZM435.5 529.0L437.5 529.0L434.0 531.5L435.5 529.0ZM786.5 529.0L787.5 529.0L787.0 530.5L786.5 529.0ZM391.5 531.0L392.5 531.0L391.5 531.0ZM428.5 532.0L429.5 532.0L428.5 532.0ZM431.5 532.0L433.5 532.0L431.0 534.5L429.0 535.5L427.5 535.0L431.5 532.0ZM754.5 532.0L755.5 532.0L754.5 532.0ZM377.5 533.0L378.5 533.0L378.0 534.5L377.5 533.0ZM532.5 534.0L533.5 534.0L533.0 536.5L532.5 534.0ZM860.5 534.0L861.5 534.0L861.0 536.5L860.5 534.0ZM393.5 536.0L394.5 536.0L393.5 536.0ZM343.5 537.0L344.5 537.0L344.0 538.5L343.5 537.0ZM279.5 538.0L280.5 538.0L279.5 538.0ZM392.5 538.0L393.5 538.0L393.5 541.0L391.5 545.0L391.5 548.0L389.0 550.5L392.5 538.0ZM381.5 541.0L382.5 541.0L381.5 541.0ZM752.5 541.0L753.5 541.0L752.5 541.0ZM675.5 543.0L676.5 543.0L676.0 547.5L674.5 547.0L675.5 546.0L675.5 543.0ZM752.5 544.0L753.5 544.0L752.5 544.0ZM836.5 545.0L837.5 545.0L836.5 545.0ZM751.5 546.0L752.5 546.0L752.0 548.5L751.5 546.0ZM674.5 549.0L675.5 549.0L675.0 550.5L674.5 549.0ZM708.5 549.0L709.5 549.0L708.5 549.0ZM282.5 550.0L284.5 550.0L283.5 551.0L283.0 555.5L282.5 550.0ZM684.5 550.0L685.5 550.0L685.0 552.5L684.5 550.0ZM751.5 550.0L752.5 550.0L751.5 550.0ZM276.5 557.0L277.5 557.0L276.5 557.0ZM341.5 557.0L342.5 557.0L342.0 559.5L341.5 557.0ZM281.5 558.0L282.5 558.0L282.0 562.5L281.5 558.0ZM333.5 560.0L337.0 559.5L337.5 561.0L335.0 562.5L333.5 560.0ZM343.5 560.0L344.5 560.0L344.0 563.5L343.5 560.0ZM340.5 560.0L341.5 560.0L341.0 562.5L340.5 560.0ZM275.5 563.0L276.5 563.0L276.0 564.5L275.5 563.0ZM338.5 563.0L339.5 563.0L338.5 563.0ZM281.5 564.0L282.5 564.0L281.5 564.0ZM342.5 564.0L343.5 564.0L343.0 565.5L342.5 564.0ZM339.5 564.0L340.5 564.0L339.5 564.0ZM472.5 566.0L473.5 566.0L472.5 566.0ZM275.5 569.0L276.5 569.0L276.0 575.5L275.5 569.0ZM269.5 570.0L270.5 570.0L270.0 571.5L269.5 570.0ZM288.5 571.0L289.5 571.0L288.5 571.0ZM287.5 573.0L288.5 573.0L286.0 576.5L287.5 573.0ZM268.5 574.0L270.5 574.0L269.5 576.0L269.5 583.0L268.5 584.0L268.5 592.0L265.0 597.5L264.5 596.0L265.5 595.0L265.5 591.0L267.5 585.0L268.5 574.0ZM274.5 576.0L275.5 576.0L274.5 576.0ZM380.5 577.0L381.5 577.0L381.0 578.5L380.5 577.0ZM274.5 578.0L275.5 578.0L275.0 580.5L274.5 578.0ZM283.5 579.0L284.5 579.0L283.5 579.0ZM379.5 580.0L380.5 580.0L380.0 581.5L379.5 580.0ZM282.5 581.0L283.5 581.0L282.0 582.5L282.5 581.0ZM280.5 584.0L281.5 584.0L280.5 586.0L278.0 588.5L280.5 584.0ZM378.5 584.0L379.5 584.0L378.5 584.0ZM283.5 589.0L284.5 589.0L283.5 589.0ZM746.5 589.0L747.5 589.0L747.5 593.0L746.0 596.5L745.5 593.0L746.5 592.0L746.5 589.0ZM276.5 590.0L277.5 590.0L275.0 593.5L276.5 590.0ZM282.5 590.0L283.5 590.0L283.0 591.5L282.5 590.0ZM281.5 592.0L282.5 592.0L281.5 592.0ZM280.5 593.0L281.5 593.0L281.0 594.5L280.5 593.0ZM273.5 595.0L274.5 595.0L273.5 595.0ZM279.5 595.0L280.5 595.0L279.5 595.0ZM278.5 596.0L279.5 596.0L278.5 596.0ZM277.5 598.0L278.5 598.0L277.5 598.0ZM276.5 599.0L277.5 599.0L276.5 599.0ZM275.5 600.0L276.5 600.0L276.0 601.5L275.5 600.0ZM745.5 601.0L746.5 601.0L746.0 602.5L745.5 601.0ZM274.5 602.0L275.5 602.0L274.5 602.0ZM273.5 603.0L274.5 603.0L274.0 604.5L273.5 603.0ZM272.5 605.0L273.5 605.0L272.5 605.0ZM271.5 606.0L272.0 605.5L272.5 607.0L270.0 609.5L269.5 608.0L271.5 606.0ZM744.5 606.0L745.5 606.0L745.0 607.5L744.5 606.0ZM277.5 609.0L278.5 609.0L277.0 610.5L277.5 609.0ZM268.5 610.0L269.0 609.5L269.5 611.0L265.0 616.5L264.5 615.0L268.5 610.0ZM374.5 611.0L375.5 611.0L374.5 611.0ZM269.5 616.0L270.5 616.0L270.0 617.5L269.5 616.0ZM251.5 617.0L252.0 616.5L252.5 618.0L251.0 619.5L250.5 618.0L251.5 617.0ZM263.5 617.0L264.0 616.5L264.5 618.0L260.5 623.0L261.5 626.0L253.5 635.0L240.5 654.0L235.0 658.5L246.5 642.0L247.5 639.0L263.5 617.0ZM376.5 617.0L377.5 617.0L376.5 617.0ZM520.5 617.0L521.5 617.0L521.0 618.5L520.5 617.0ZM272.5 619.0L273.5 619.0L273.0 620.5L272.5 619.0ZM249.5 620.0L250.0 619.5L250.5 621.0L249.0 622.5L248.5 621.0L249.5 620.0ZM271.5 621.0L272.5 621.0L271.5 621.0ZM247.5 623.0L248.5 623.0L247.5 623.0ZM270.5 623.0L271.5 623.0L270.5 623.0ZM246.5 624.0L247.5 624.0L246.5 624.0ZM375.5 624.0L376.5 624.0L375.5 624.0ZM245.5 626.0L246.5 626.0L245.5 626.0ZM244.5 627.0L245.5 627.0L244.5 627.0ZM243.5 629.0L244.5 629.0L243.5 629.0ZM242.5 630.0L243.0 629.5L244.5 632.0L241.0 634.5L240.5 633.0L242.5 630.0ZM239.5 635.0L240.0 634.5L240.5 636.0L238.0 638.5L237.5 637.0L239.5 635.0ZM236.5 639.0L237.0 638.5L237.5 640.0L235.0 642.5L234.5 641.0L236.5 639.0ZM524.5 639.0L525.5 639.0L525.0 642.5L524.5 639.0ZM233.5 643.0L234.5 643.0L233.5 643.0ZM232.5 644.0L233.5 644.0L233.0 645.5L232.5 644.0ZM231.5 646.0L232.5 646.0L231.5 646.0ZM230.5 647.0L231.5 647.0L230.5 647.0ZM247.5 647.0L248.5 647.0L247.5 647.0ZM229.5 648.0L230.5 648.0L229.5 648.0ZM246.5 648.0L247.5 648.0L246.5 648.0ZM245.5 649.0L246.5 649.0L245.5 649.0ZM228.5 650.0L229.5 650.0L228.5 650.0ZM244.5 651.0L245.5 651.0L244.5 651.0ZM243.5 652.0L244.5 652.0L243.5 652.0ZM242.5 653.0L243.5 653.0L242.5 653.0ZM241.5 654.0L242.5 654.0L241.5 654.0ZM222.5 658.0L223.5 658.0L222.5 658.0ZM226.5 662.0L227.0 661.5L227.5 663.0L226.0 664.5L225.5 663.0L226.5 662.0ZM224.5 665.0L225.0 664.5L225.5 666.0L224.0 667.5L223.5 666.0L224.5 665.0ZM222.5 668.0L223.5 668.0L222.5 668.0ZM221.5 670.0L222.5 670.0L221.5 670.0ZM220.5 671.0L221.5 671.0L220.5 671.0Z"></path></svg>